M48
; DRILL file {KiCad (6.0.10)} date Tue Jan 31 16:55:19 2023
; FORMAT={-:-/ absolute / inch / decimal}
; #@! TF.CreationDate,2023-01-31T16:55:19+01:00
; #@! TF.GenerationSoftware,Kicad,Pcbnew,(6.0.10)
; #@! TF.FileFunction,Plated,1,2,PTH
FMAT,2
INCH
; #@! TA.AperFunction,Plated,PTH,ViaDrill
T1C0.0118
; #@! TA.AperFunction,Plated,PTH,ViaDrill
T2C0.0157
; #@! TA.AperFunction,Plated,PTH,ComponentDrill
T3C0.0256
; #@! TA.AperFunction,Plated,PTH,ComponentDrill
T4C0.0315
; #@! TA.AperFunction,Plated,PTH,ComponentDrill
T5C0.0394
; #@! TA.AperFunction,Plated,PTH,ComponentDrill
T6C0.0984
%
G90
G05
T1
X5.55Y-2.225
X5.56Y-2.38
X5.725Y-2.06
X5.8244Y-2.3409
X5.826Y-2.6016
X5.8473Y-2.5771
X5.8591Y-2.602
X5.8744Y-2.1413
X5.985Y-2.18
X6.0044Y-2.155
X6.025Y-2.24
X6.05Y-2.2
X6.05Y-2.335
X6.066Y-2.1776
X6.125Y-2.075
X6.2194Y-2.13
X6.225Y-2.33
T2
X5.1035Y-3.25
X5.1427Y-3.042
X5.15Y-3.175
X5.1785Y-3.25
X5.225Y-3.225
X5.236Y-3.2672
X5.2972Y-3.4285
X5.3008Y-2.9717
X5.3198Y-3.025
X5.325Y-3.4
X5.325Y-3.85
X5.366Y-3.225
X5.5285Y-3.25
X5.5677Y-3.042
X5.575Y-3.175
X5.6035Y-3.25
X5.65Y-3.225
X5.661Y-3.2672
X5.7222Y-3.4285
X5.7258Y-2.9717
X5.7448Y-3.025
X5.75Y-3.4
X5.75Y-3.85
X5.791Y-3.225
X5.835Y-2.435
X5.835Y-2.49
X5.89Y-2.435
X5.89Y-2.49
X5.9535Y-3.25
X5.9927Y-3.042
X6.0Y-3.175
X6.0285Y-3.25
X6.075Y-3.225
X6.086Y-3.2672
X6.1472Y-3.4285
X6.1508Y-2.9717
X6.1698Y-3.025
X6.175Y-3.4
X6.175Y-3.85
X6.216Y-3.225
X6.3785Y-3.25
X6.4177Y-3.042
X6.425Y-3.175
X6.4535Y-3.25
X6.5Y-3.225
X6.511Y-3.2672
X6.5722Y-3.4285
X6.5758Y-2.9717
X6.5948Y-3.025
X6.6Y-3.4
X6.6Y-3.85
X6.641Y-3.225
T3
X5.125Y-1.825
X5.125Y-1.925
X5.125Y-2.025
X5.125Y-2.125
X5.125Y-2.225
X5.125Y-2.325
X5.125Y-2.425
X5.125Y-2.525
X5.125Y-2.625
X5.175Y-1.825
X5.175Y-1.925
X5.175Y-2.025
X5.175Y-2.125
X5.175Y-2.225
X5.175Y-2.325
X5.175Y-2.425
X5.175Y-2.525
X5.175Y-2.625
X5.2004Y-2.8494
X5.2004Y-2.8994
X5.2004Y-2.9494
X5.2004Y-2.9994
X5.2004Y-3.0494
X5.2004Y-3.0994
X5.2004Y-3.1494
X5.225Y-1.825
X5.225Y-1.925
X5.225Y-2.025
X5.225Y-2.125
X5.225Y-2.225
X5.225Y-2.325
X5.225Y-2.425
X5.225Y-2.525
X5.225Y-2.625
X5.2504Y-2.8494
X5.2504Y-2.8994
X5.2504Y-2.9494
X5.2504Y-2.9994
X5.2504Y-3.0494
X5.2504Y-3.0994
X5.2504Y-3.1494
X5.275Y-1.825
X5.275Y-1.925
X5.275Y-2.025
X5.275Y-2.125
X5.275Y-2.225
X5.275Y-2.325
X5.275Y-2.425
X5.275Y-2.525
X5.275Y-2.625
X5.6254Y-2.8494
X5.6254Y-2.8994
X5.6254Y-2.9494
X5.6254Y-2.9994
X5.6254Y-3.0494
X5.6254Y-3.0994
X5.6254Y-3.1494
X5.6754Y-2.8494
X5.6754Y-2.8994
X5.6754Y-2.9494
X5.6754Y-2.9994
X5.6754Y-3.0494
X5.6754Y-3.0994
X5.6754Y-3.1494
X6.0504Y-2.8494
X6.0504Y-2.8994
X6.0504Y-2.9494
X6.0504Y-2.9994
X6.0504Y-3.0494
X6.0504Y-3.0994
X6.0504Y-3.1494
X6.1004Y-2.8494
X6.1004Y-2.8994
X6.1004Y-2.9494
X6.1004Y-2.9994
X6.1004Y-3.0494
X6.1004Y-3.0994
X6.1004Y-3.1494
X6.45Y-1.825
X6.45Y-1.925
X6.45Y-2.025
X6.45Y-2.125
X6.45Y-2.225
X6.45Y-2.325
X6.45Y-2.425
X6.45Y-2.525
X6.45Y-2.625
X6.475Y-2.85
X6.475Y-2.9
X6.475Y-2.95
X6.475Y-3.0
X6.475Y-3.05
X6.475Y-3.1
X6.475Y-3.15
X6.5Y-1.825
X6.5Y-1.925
X6.5Y-2.025
X6.5Y-2.125
X6.5Y-2.225
X6.5Y-2.325
X6.5Y-2.425
X6.5Y-2.525
X6.5Y-2.625
X6.525Y-2.85
X6.525Y-2.9
X6.525Y-2.95
X6.525Y-3.0
X6.525Y-3.05
X6.525Y-3.1
X6.525Y-3.15
X6.55Y-1.825
X6.55Y-1.925
X6.55Y-2.025
X6.55Y-2.125
X6.55Y-2.225
X6.55Y-2.325
X6.55Y-2.425
X6.55Y-2.525
X6.55Y-2.625
X6.6Y-1.825
X6.6Y-1.925
X6.6Y-2.025
X6.6Y-2.125
X6.6Y-2.225
X6.6Y-2.325
X6.6Y-2.425
X6.6Y-2.525
X6.6Y-2.625
T4
X5.075Y-3.3
X5.075Y-3.4
X5.075Y-3.5
X5.075Y-3.6
X5.075Y-3.7
X5.075Y-3.8
X5.075Y-3.9
X5.375Y-3.3
X5.375Y-3.4
X5.375Y-3.5
X5.375Y-3.6
X5.375Y-3.7
X5.375Y-3.8
X5.375Y-3.9
X5.5Y-3.3
X5.5Y-3.4
X5.5Y-3.5
X5.5Y-3.6
X5.5Y-3.7
X5.5Y-3.8
X5.5Y-3.9
X5.8Y-3.3
X5.8Y-3.4
X5.8Y-3.5
X5.8Y-3.6
X5.8Y-3.7
X5.8Y-3.8
X5.8Y-3.9
X5.925Y-3.3
X5.925Y-3.4
X5.925Y-3.5
X5.925Y-3.6
X5.925Y-3.7
X5.925Y-3.8
X5.925Y-3.9
X6.225Y-3.3
X6.225Y-3.4
X6.225Y-3.5
X6.225Y-3.6
X6.225Y-3.7
X6.225Y-3.8
X6.225Y-3.9
X6.355Y-3.3
X6.355Y-3.4
X6.355Y-3.5
X6.355Y-3.6
X6.355Y-3.7
X6.355Y-3.8
X6.355Y-3.9
X6.655Y-3.3
X6.655Y-3.4
X6.655Y-3.5
X6.655Y-3.6
X6.655Y-3.7
X6.655Y-3.8
X6.655Y-3.9
T5
X5.5743Y-1.9518
X5.575Y-1.825
X5.6743Y-1.9518
X5.675Y-1.825
X5.7743Y-1.9518
X5.775Y-1.825
X5.8743Y-1.9518
X5.875Y-1.825
X5.9743Y-1.9518
X5.975Y-1.825
X6.0743Y-1.9518
X6.075Y-1.825
X6.1743Y-1.9518
X6.175Y-1.825
T6
X5.4Y-1.85
X6.325Y-1.85
T0
M30
