%TF.GenerationSoftware,KiCad,Pcbnew,(6.0.10)*%
%TF.CreationDate,2023-01-31T16:55:15+01:00*%
%TF.ProjectId,LTP-305_dev_board,4c54502d-3330-4355-9f64-65765f626f61,rev?*%
%TF.SameCoordinates,Original*%
%TF.FileFunction,Legend,Bot*%
%TF.FilePolarity,Positive*%
%FSLAX46Y46*%
G04 Gerber Fmt 4.6, Leading zero omitted, Abs format (unit mm)*
G04 Created by KiCad (PCBNEW (6.0.10)) date 2023-01-31 16:55:15*
%MOMM*%
%LPD*%
G01*
G04 APERTURE LIST*
%ADD10C,0.150000*%
G04 APERTURE END LIST*
D10*
X162701500Y-67372666D02*
X162701500Y-66906000D01*
X162701500Y-67039333D02*
X162668166Y-66972666D01*
X162634833Y-66939333D01*
X162568166Y-66906000D01*
X162501500Y-66906000D01*
X162001500Y-67339333D02*
X162068166Y-67372666D01*
X162201500Y-67372666D01*
X162268166Y-67339333D01*
X162301500Y-67272666D01*
X162301500Y-67006000D01*
X162268166Y-66939333D01*
X162201500Y-66906000D01*
X162068166Y-66906000D01*
X162001500Y-66939333D01*
X161968166Y-67006000D01*
X161968166Y-67072666D01*
X162301500Y-67139333D01*
X161734833Y-66906000D02*
X161568166Y-67372666D01*
X161401500Y-66906000D01*
X161134833Y-67306000D02*
X161101500Y-67339333D01*
X161134833Y-67372666D01*
X161168166Y-67339333D01*
X161134833Y-67306000D01*
X161134833Y-67372666D01*
X160134833Y-66672666D02*
X160068166Y-66672666D01*
X160001500Y-66706000D01*
X159968166Y-66739333D01*
X159934833Y-66806000D01*
X159901500Y-66939333D01*
X159901500Y-67106000D01*
X159934833Y-67239333D01*
X159968166Y-67306000D01*
X160001500Y-67339333D01*
X160068166Y-67372666D01*
X160134833Y-67372666D01*
X160201500Y-67339333D01*
X160234833Y-67306000D01*
X160268166Y-67239333D01*
X160301500Y-67106000D01*
X160301500Y-66939333D01*
X160268166Y-66806000D01*
X160234833Y-66739333D01*
X160201500Y-66706000D01*
X160134833Y-66672666D01*
X159234833Y-67372666D02*
X159634833Y-67372666D01*
X159434833Y-67372666D02*
X159434833Y-66672666D01*
X159501500Y-66772666D01*
X159568166Y-66839333D01*
X159634833Y-66872666D01*
X162718166Y-66102666D02*
X162718166Y-65402666D01*
X162551500Y-65402666D01*
X162451500Y-65436000D01*
X162384833Y-65502666D01*
X162351500Y-65569333D01*
X162318166Y-65702666D01*
X162318166Y-65802666D01*
X162351500Y-65936000D01*
X162384833Y-66002666D01*
X162451500Y-66069333D01*
X162551500Y-66102666D01*
X162718166Y-66102666D01*
X161751500Y-66069333D02*
X161818166Y-66102666D01*
X161951500Y-66102666D01*
X162018166Y-66069333D01*
X162051500Y-66002666D01*
X162051500Y-65736000D01*
X162018166Y-65669333D01*
X161951500Y-65636000D01*
X161818166Y-65636000D01*
X161751500Y-65669333D01*
X161718166Y-65736000D01*
X161718166Y-65802666D01*
X162051500Y-65869333D01*
X161484833Y-65636000D02*
X161318166Y-66102666D01*
X161151500Y-65636000D01*
X160618166Y-66069333D02*
X160684833Y-66102666D01*
X160818166Y-66102666D01*
X160884833Y-66069333D01*
X160918166Y-66002666D01*
X160918166Y-65736000D01*
X160884833Y-65669333D01*
X160818166Y-65636000D01*
X160684833Y-65636000D01*
X160618166Y-65669333D01*
X160584833Y-65736000D01*
X160584833Y-65802666D01*
X160918166Y-65869333D01*
X160184833Y-66102666D02*
X160251500Y-66069333D01*
X160284833Y-66002666D01*
X160284833Y-65402666D01*
X159818166Y-66102666D02*
X159884833Y-66069333D01*
X159918166Y-66036000D01*
X159951500Y-65969333D01*
X159951500Y-65769333D01*
X159918166Y-65702666D01*
X159884833Y-65669333D01*
X159818166Y-65636000D01*
X159718166Y-65636000D01*
X159651500Y-65669333D01*
X159618166Y-65702666D01*
X159584833Y-65769333D01*
X159584833Y-65969333D01*
X159618166Y-66036000D01*
X159651500Y-66069333D01*
X159718166Y-66102666D01*
X159818166Y-66102666D01*
X159284833Y-65636000D02*
X159284833Y-66336000D01*
X159284833Y-65669333D02*
X159218166Y-65636000D01*
X159084833Y-65636000D01*
X159018166Y-65669333D01*
X158984833Y-65702666D01*
X158951500Y-65769333D01*
X158951500Y-65969333D01*
X158984833Y-66036000D01*
X159018166Y-66069333D01*
X159084833Y-66102666D01*
X159218166Y-66102666D01*
X159284833Y-66069333D01*
X158651500Y-66102666D02*
X158651500Y-65636000D01*
X158651500Y-65702666D02*
X158618166Y-65669333D01*
X158551500Y-65636000D01*
X158451500Y-65636000D01*
X158384833Y-65669333D01*
X158351500Y-65736000D01*
X158351500Y-66102666D01*
X158351500Y-65736000D02*
X158318166Y-65669333D01*
X158251500Y-65636000D01*
X158151500Y-65636000D01*
X158084833Y-65669333D01*
X158051500Y-65736000D01*
X158051500Y-66102666D01*
X157451500Y-66069333D02*
X157518166Y-66102666D01*
X157651500Y-66102666D01*
X157718166Y-66069333D01*
X157751500Y-66002666D01*
X157751500Y-65736000D01*
X157718166Y-65669333D01*
X157651500Y-65636000D01*
X157518166Y-65636000D01*
X157451500Y-65669333D01*
X157418166Y-65736000D01*
X157418166Y-65802666D01*
X157751500Y-65869333D01*
X157118166Y-65636000D02*
X157118166Y-66102666D01*
X157118166Y-65702666D02*
X157084833Y-65669333D01*
X157018166Y-65636000D01*
X156918166Y-65636000D01*
X156851500Y-65669333D01*
X156818166Y-65736000D01*
X156818166Y-66102666D01*
X156584833Y-65636000D02*
X156318166Y-65636000D01*
X156484833Y-65402666D02*
X156484833Y-66002666D01*
X156451500Y-66069333D01*
X156384833Y-66102666D01*
X156318166Y-66102666D01*
X155551500Y-66102666D02*
X155551500Y-65402666D01*
X155551500Y-65669333D02*
X155484833Y-65636000D01*
X155351500Y-65636000D01*
X155284833Y-65669333D01*
X155251500Y-65702666D01*
X155218166Y-65769333D01*
X155218166Y-65969333D01*
X155251500Y-66036000D01*
X155284833Y-66069333D01*
X155351500Y-66102666D01*
X155484833Y-66102666D01*
X155551500Y-66069333D01*
X154818166Y-66102666D02*
X154884833Y-66069333D01*
X154918166Y-66036000D01*
X154951500Y-65969333D01*
X154951500Y-65769333D01*
X154918166Y-65702666D01*
X154884833Y-65669333D01*
X154818166Y-65636000D01*
X154718166Y-65636000D01*
X154651500Y-65669333D01*
X154618166Y-65702666D01*
X154584833Y-65769333D01*
X154584833Y-65969333D01*
X154618166Y-66036000D01*
X154651500Y-66069333D01*
X154718166Y-66102666D01*
X154818166Y-66102666D01*
X153984833Y-66102666D02*
X153984833Y-65736000D01*
X154018166Y-65669333D01*
X154084833Y-65636000D01*
X154218166Y-65636000D01*
X154284833Y-65669333D01*
X153984833Y-66069333D02*
X154051500Y-66102666D01*
X154218166Y-66102666D01*
X154284833Y-66069333D01*
X154318166Y-66002666D01*
X154318166Y-65936000D01*
X154284833Y-65869333D01*
X154218166Y-65836000D01*
X154051500Y-65836000D01*
X153984833Y-65802666D01*
X153651500Y-66102666D02*
X153651500Y-65636000D01*
X153651500Y-65769333D02*
X153618166Y-65702666D01*
X153584833Y-65669333D01*
X153518166Y-65636000D01*
X153451500Y-65636000D01*
X152918166Y-66102666D02*
X152918166Y-65402666D01*
X152918166Y-66069333D02*
X152984833Y-66102666D01*
X153118166Y-66102666D01*
X153184833Y-66069333D01*
X153218166Y-66036000D01*
X153251500Y-65969333D01*
X153251500Y-65769333D01*
X153218166Y-65702666D01*
X153184833Y-65669333D01*
X153118166Y-65636000D01*
X152984833Y-65636000D01*
X152918166Y-65669333D01*
X162295833Y-64832666D02*
X162629166Y-64832666D01*
X162629166Y-64132666D01*
X162162500Y-64132666D02*
X161762500Y-64132666D01*
X161962500Y-64832666D02*
X161962500Y-64132666D01*
X161529166Y-64832666D02*
X161529166Y-64132666D01*
X161262500Y-64132666D01*
X161195833Y-64166000D01*
X161162500Y-64199333D01*
X161129166Y-64266000D01*
X161129166Y-64366000D01*
X161162500Y-64432666D01*
X161195833Y-64466000D01*
X161262500Y-64499333D01*
X161529166Y-64499333D01*
X160829166Y-64566000D02*
X160295833Y-64566000D01*
X160029166Y-64132666D02*
X159595833Y-64132666D01*
X159829166Y-64399333D01*
X159729166Y-64399333D01*
X159662500Y-64432666D01*
X159629166Y-64466000D01*
X159595833Y-64532666D01*
X159595833Y-64699333D01*
X159629166Y-64766000D01*
X159662500Y-64799333D01*
X159729166Y-64832666D01*
X159929166Y-64832666D01*
X159995833Y-64799333D01*
X160029166Y-64766000D01*
X159162500Y-64132666D02*
X159095833Y-64132666D01*
X159029166Y-64166000D01*
X158995833Y-64199333D01*
X158962500Y-64266000D01*
X158929166Y-64399333D01*
X158929166Y-64566000D01*
X158962500Y-64699333D01*
X158995833Y-64766000D01*
X159029166Y-64799333D01*
X159095833Y-64832666D01*
X159162500Y-64832666D01*
X159229166Y-64799333D01*
X159262500Y-64766000D01*
X159295833Y-64699333D01*
X159329166Y-64566000D01*
X159329166Y-64399333D01*
X159295833Y-64266000D01*
X159262500Y-64199333D01*
X159229166Y-64166000D01*
X159162500Y-64132666D01*
X158295833Y-64132666D02*
X158629166Y-64132666D01*
X158662500Y-64466000D01*
X158629166Y-64432666D01*
X158562500Y-64399333D01*
X158395833Y-64399333D01*
X158329166Y-64432666D01*
X158295833Y-64466000D01*
X158262500Y-64532666D01*
X158262500Y-64699333D01*
X158295833Y-64766000D01*
X158329166Y-64799333D01*
X158395833Y-64832666D01*
X158562500Y-64832666D01*
X158629166Y-64799333D01*
X158662500Y-64766000D01*
X157095833Y-64832666D02*
X157429166Y-64832666D01*
X157429166Y-64132666D01*
X156862500Y-64466000D02*
X156629166Y-64466000D01*
X156529166Y-64832666D02*
X156862500Y-64832666D01*
X156862500Y-64132666D01*
X156529166Y-64132666D01*
X156229166Y-64832666D02*
X156229166Y-64132666D01*
X156062500Y-64132666D01*
X155962500Y-64166000D01*
X155895833Y-64232666D01*
X155862500Y-64299333D01*
X155829166Y-64432666D01*
X155829166Y-64532666D01*
X155862500Y-64666000D01*
X155895833Y-64732666D01*
X155962500Y-64799333D01*
X156062500Y-64832666D01*
X156229166Y-64832666D01*
X154995833Y-64832666D02*
X154995833Y-64366000D01*
X154995833Y-64432666D02*
X154962500Y-64399333D01*
X154895833Y-64366000D01*
X154795833Y-64366000D01*
X154729166Y-64399333D01*
X154695833Y-64466000D01*
X154695833Y-64832666D01*
X154695833Y-64466000D02*
X154662500Y-64399333D01*
X154595833Y-64366000D01*
X154495833Y-64366000D01*
X154429166Y-64399333D01*
X154395833Y-64466000D01*
X154395833Y-64832666D01*
X153762500Y-64832666D02*
X153762500Y-64466000D01*
X153795833Y-64399333D01*
X153862500Y-64366000D01*
X153995833Y-64366000D01*
X154062500Y-64399333D01*
X153762500Y-64799333D02*
X153829166Y-64832666D01*
X153995833Y-64832666D01*
X154062500Y-64799333D01*
X154095833Y-64732666D01*
X154095833Y-64666000D01*
X154062500Y-64599333D01*
X153995833Y-64566000D01*
X153829166Y-64566000D01*
X153762500Y-64532666D01*
X153529166Y-64366000D02*
X153262500Y-64366000D01*
X153429166Y-64132666D02*
X153429166Y-64732666D01*
X153395833Y-64799333D01*
X153329166Y-64832666D01*
X153262500Y-64832666D01*
X153029166Y-64832666D02*
X153029166Y-64366000D01*
X153029166Y-64499333D02*
X152995833Y-64432666D01*
X152962500Y-64399333D01*
X152895833Y-64366000D01*
X152829166Y-64366000D01*
X152595833Y-64832666D02*
X152595833Y-64366000D01*
X152595833Y-64132666D02*
X152629166Y-64166000D01*
X152595833Y-64199333D01*
X152562500Y-64166000D01*
X152595833Y-64132666D01*
X152595833Y-64199333D01*
X152329166Y-64832666D02*
X151962500Y-64366000D01*
X152329166Y-64366000D02*
X151962500Y-64832666D01*
M02*
