%TF.GenerationSoftware,KiCad,Pcbnew,(6.0.10)*%
%TF.CreationDate,2023-01-31T16:55:15+01:00*%
%TF.ProjectId,LTP-305_dev_board,4c54502d-3330-4355-9f64-65765f626f61,rev?*%
%TF.SameCoordinates,Original*%
%TF.FileFunction,Soldermask,Bot*%
%TF.FilePolarity,Negative*%
%FSLAX46Y46*%
G04 Gerber Fmt 4.6, Leading zero omitted, Abs format (unit mm)*
G04 Created by KiCad (PCBNEW (6.0.10)) date 2023-01-31 16:55:15*
%MOMM*%
%LPD*%
G01*
G04 APERTURE LIST*
%ADD10R,1.200000X1.200000*%
%ADD11C,1.200000*%
%ADD12R,1.700000X1.700000*%
%ADD13O,1.700000X1.700000*%
%ADD14R,1.000000X1.000000*%
%ADD15O,1.000000X1.000000*%
%ADD16C,3.500000*%
G04 APERTURE END LIST*
D10*
%TO.C,DS4*%
X161417000Y-83820000D03*
D11*
X161417000Y-86360000D03*
X161417000Y-88900000D03*
X161417000Y-91440000D03*
X161417000Y-93980000D03*
X161417000Y-96520000D03*
X161417000Y-99060000D03*
X169037000Y-99060000D03*
X169037000Y-96520000D03*
X169037000Y-93980000D03*
X169037000Y-91440000D03*
X169037000Y-88900000D03*
X169037000Y-86360000D03*
X169037000Y-83820000D03*
%TD*%
D10*
%TO.C,DS3*%
X150495000Y-83820000D03*
D11*
X150495000Y-86360000D03*
X150495000Y-88900000D03*
X150495000Y-91440000D03*
X150495000Y-93980000D03*
X150495000Y-96520000D03*
X150495000Y-99060000D03*
X158115000Y-99060000D03*
X158115000Y-96520000D03*
X158115000Y-93980000D03*
X158115000Y-91440000D03*
X158115000Y-88900000D03*
X158115000Y-86360000D03*
X158115000Y-83820000D03*
%TD*%
D10*
%TO.C,DS2*%
X139700000Y-83820000D03*
D11*
X139700000Y-86360000D03*
X139700000Y-88900000D03*
X139700000Y-91440000D03*
X139700000Y-93980000D03*
X139700000Y-96520000D03*
X139700000Y-99060000D03*
X147320000Y-99060000D03*
X147320000Y-96520000D03*
X147320000Y-93980000D03*
X147320000Y-91440000D03*
X147320000Y-88900000D03*
X147320000Y-86360000D03*
X147320000Y-83820000D03*
%TD*%
D10*
%TO.C,DS1*%
X128905000Y-83820000D03*
D11*
X128905000Y-86360000D03*
X128905000Y-88900000D03*
X128905000Y-91440000D03*
X128905000Y-93980000D03*
X128905000Y-96520000D03*
X128905000Y-99060000D03*
X136525000Y-99060000D03*
X136525000Y-96520000D03*
X136525000Y-93980000D03*
X136525000Y-91440000D03*
X136525000Y-88900000D03*
X136525000Y-86360000D03*
X136525000Y-83820000D03*
%TD*%
D12*
%TO.C,J6*%
X141587500Y-49575000D03*
D13*
X144127500Y-49575000D03*
X146667500Y-49575000D03*
X149207500Y-49575000D03*
X151747500Y-49575000D03*
X154287500Y-49575000D03*
X156827500Y-49575000D03*
%TD*%
D14*
%TO.C,CB3*%
X167640000Y-61595000D03*
D15*
X166370000Y-61595000D03*
X165100000Y-61595000D03*
X163830000Y-61595000D03*
%TD*%
%TO.C,J3*%
X154950000Y-72375000D03*
X154950000Y-73645000D03*
X154950000Y-74915000D03*
X154950000Y-76185000D03*
X154950000Y-77455000D03*
X154950000Y-78725000D03*
X154950000Y-79995000D03*
X153680000Y-79995000D03*
X153680000Y-78725000D03*
X153680000Y-77455000D03*
X153680000Y-76185000D03*
X153680000Y-74915000D03*
X153680000Y-73645000D03*
D14*
X153680000Y-72375000D03*
%TD*%
%TO.C,CB9*%
X167640000Y-46355000D03*
D15*
X166370000Y-46355000D03*
X165100000Y-46355000D03*
X163830000Y-46355000D03*
%TD*%
D14*
%TO.C,CA4*%
X130175000Y-53975000D03*
D15*
X131445000Y-53975000D03*
X132715000Y-53975000D03*
X133985000Y-53975000D03*
%TD*%
D16*
%TO.C,*%
X160655000Y-46990000D03*
%TD*%
D15*
%TO.C,J2*%
X144155000Y-72375000D03*
X144155000Y-73645000D03*
X144155000Y-74915000D03*
X144155000Y-76185000D03*
X144155000Y-77455000D03*
X144155000Y-78725000D03*
X144155000Y-79995000D03*
X142885000Y-79995000D03*
X142885000Y-78725000D03*
X142885000Y-77455000D03*
X142885000Y-76185000D03*
X142885000Y-74915000D03*
X142885000Y-73645000D03*
D14*
X142885000Y-72375000D03*
%TD*%
%TO.C,CA3*%
X130175000Y-51435000D03*
D15*
X131445000Y-51435000D03*
X132715000Y-51435000D03*
X133985000Y-51435000D03*
%TD*%
D14*
%TO.C,CA1*%
X130175000Y-46355000D03*
D15*
X131445000Y-46355000D03*
X132715000Y-46355000D03*
X133985000Y-46355000D03*
%TD*%
D14*
%TO.C,CB4*%
X167640000Y-59055000D03*
D15*
X166370000Y-59055000D03*
X165100000Y-59055000D03*
X163830000Y-59055000D03*
%TD*%
D14*
%TO.C,CA5*%
X130175000Y-56515000D03*
D15*
X131445000Y-56515000D03*
X132715000Y-56515000D03*
X133985000Y-56515000D03*
%TD*%
D14*
%TO.C,J1*%
X132090000Y-72375000D03*
D15*
X132090000Y-73645000D03*
X132090000Y-74915000D03*
X132090000Y-76185000D03*
X132090000Y-77455000D03*
X132090000Y-78725000D03*
X132090000Y-79995000D03*
X133360000Y-79995000D03*
X133360000Y-78725000D03*
X133360000Y-77455000D03*
X133360000Y-76185000D03*
X133360000Y-74915000D03*
X133360000Y-73645000D03*
X133360000Y-72375000D03*
%TD*%
D14*
%TO.C,CB1*%
X167640000Y-66675000D03*
D15*
X166370000Y-66675000D03*
X165100000Y-66675000D03*
X163830000Y-66675000D03*
%TD*%
D14*
%TO.C,CB6*%
X167640000Y-53975000D03*
D15*
X166370000Y-53975000D03*
X165100000Y-53975000D03*
X163830000Y-53975000D03*
%TD*%
D14*
%TO.C,CB2*%
X167640000Y-64135000D03*
D15*
X166370000Y-64135000D03*
X165100000Y-64135000D03*
X163830000Y-64135000D03*
%TD*%
D14*
%TO.C,CA6*%
X130175000Y-59055000D03*
D15*
X131445000Y-59055000D03*
X132715000Y-59055000D03*
X133985000Y-59055000D03*
%TD*%
D14*
%TO.C,CA7*%
X130175000Y-61595000D03*
D15*
X131445000Y-61595000D03*
X132715000Y-61595000D03*
X133985000Y-61595000D03*
%TD*%
D14*
%TO.C,CA8*%
X130175000Y-64135000D03*
D15*
X131445000Y-64135000D03*
X132715000Y-64135000D03*
X133985000Y-64135000D03*
%TD*%
D16*
%TO.C,*%
X137160000Y-46990000D03*
%TD*%
D14*
%TO.C,CB8*%
X167640000Y-48895000D03*
D15*
X166370000Y-48895000D03*
X165100000Y-48895000D03*
X163830000Y-48895000D03*
%TD*%
D14*
%TO.C,CB5*%
X167640000Y-56515000D03*
D15*
X166370000Y-56515000D03*
X165100000Y-56515000D03*
X163830000Y-56515000D03*
%TD*%
D14*
%TO.C,CA2*%
X130175000Y-48895000D03*
D15*
X131445000Y-48895000D03*
X132715000Y-48895000D03*
X133985000Y-48895000D03*
%TD*%
D14*
%TO.C,J4*%
X164465000Y-72390000D03*
D15*
X164465000Y-73660000D03*
X164465000Y-74930000D03*
X164465000Y-76200000D03*
X164465000Y-77470000D03*
X164465000Y-78740000D03*
X164465000Y-80010000D03*
X165735000Y-80010000D03*
X165735000Y-78740000D03*
X165735000Y-77470000D03*
X165735000Y-76200000D03*
X165735000Y-74930000D03*
X165735000Y-73660000D03*
X165735000Y-72390000D03*
%TD*%
D12*
%TO.C,J5*%
X141605000Y-46355000D03*
D13*
X144145000Y-46355000D03*
X146685000Y-46355000D03*
X149225000Y-46355000D03*
X151765000Y-46355000D03*
X154305000Y-46355000D03*
X156845000Y-46355000D03*
%TD*%
D14*
%TO.C,CA9*%
X130175000Y-66675000D03*
D15*
X131445000Y-66675000D03*
X132715000Y-66675000D03*
X133985000Y-66675000D03*
%TD*%
D14*
%TO.C,CB7*%
X167640000Y-51435000D03*
D15*
X166370000Y-51435000D03*
X165100000Y-51435000D03*
X163830000Y-51435000D03*
%TD*%
M02*
