%TF.GenerationSoftware,KiCad,Pcbnew,(6.0.10)*%
%TF.CreationDate,2023-01-31T16:55:14+01:00*%
%TF.ProjectId,LTP-305_dev_board,4c54502d-3330-4355-9f64-65765f626f61,rev?*%
%TF.SameCoordinates,Original*%
%TF.FileFunction,Paste,Top*%
%TF.FilePolarity,Positive*%
%FSLAX46Y46*%
G04 Gerber Fmt 4.6, Leading zero omitted, Abs format (unit mm)*
G04 Created by KiCad (PCBNEW (6.0.10)) date 2023-01-31 16:55:14*
%MOMM*%
%LPD*%
G01*
G04 APERTURE LIST*
G04 Aperture macros list*
%AMRoundRect*
0 Rectangle with rounded corners*
0 $1 Rounding radius*
0 $2 $3 $4 $5 $6 $7 $8 $9 X,Y pos of 4 corners*
0 Add a 4 corners polygon primitive as box body*
4,1,4,$2,$3,$4,$5,$6,$7,$8,$9,$2,$3,0*
0 Add four circle primitives for the rounded corners*
1,1,$1+$1,$2,$3*
1,1,$1+$1,$4,$5*
1,1,$1+$1,$6,$7*
1,1,$1+$1,$8,$9*
0 Add four rect primitives between the rounded corners*
20,1,$1+$1,$2,$3,$4,$5,0*
20,1,$1+$1,$4,$5,$6,$7,0*
20,1,$1+$1,$6,$7,$8,$9,0*
20,1,$1+$1,$8,$9,$2,$3,0*%
G04 Aperture macros list end*
%ADD10RoundRect,0.237500X0.250000X0.237500X-0.250000X0.237500X-0.250000X-0.237500X0.250000X-0.237500X0*%
%ADD11RoundRect,0.237500X-0.250000X-0.237500X0.250000X-0.237500X0.250000X0.237500X-0.250000X0.237500X0*%
%ADD12RoundRect,0.237500X0.237500X-0.250000X0.237500X0.250000X-0.237500X0.250000X-0.237500X-0.250000X0*%
%ADD13RoundRect,0.232500X0.232500X-0.232500X0.232500X0.232500X-0.232500X0.232500X-0.232500X-0.232500X0*%
%ADD14RoundRect,0.050000X0.050000X-0.362500X0.050000X0.362500X-0.050000X0.362500X-0.050000X-0.362500X0*%
%ADD15RoundRect,0.050000X0.362500X-0.050000X0.362500X0.050000X-0.362500X0.050000X-0.362500X-0.050000X0*%
%ADD16RoundRect,0.237500X0.287500X0.237500X-0.287500X0.237500X-0.287500X-0.237500X0.287500X-0.237500X0*%
G04 APERTURE END LIST*
D10*
%TO.C,R4*%
X157376500Y-60071000D03*
X155551500Y-60071000D03*
%TD*%
%TO.C,R6*%
X140555000Y-58928000D03*
X138730000Y-58928000D03*
%TD*%
%TO.C,R2*%
X157376500Y-56706000D03*
X155551500Y-56706000D03*
%TD*%
%TO.C,R3*%
X157376500Y-58388500D03*
X155551500Y-58388500D03*
%TD*%
D11*
%TO.C,R1*%
X155531500Y-54991000D03*
X157356500Y-54991000D03*
%TD*%
D12*
%TO.C,C1*%
X149225000Y-57150000D03*
X149225000Y-55325000D03*
%TD*%
%TO.C,C2*%
X151130000Y-57150000D03*
X151130000Y-55325000D03*
%TD*%
D13*
%TO.C,U1*%
X148325000Y-61995000D03*
X149475000Y-63145000D03*
X149475000Y-61995000D03*
X148325000Y-63145000D03*
D14*
X147700000Y-64507500D03*
X148100000Y-64507500D03*
X148500000Y-64507500D03*
X148900000Y-64507500D03*
X149300000Y-64507500D03*
X149700000Y-64507500D03*
X150100000Y-64507500D03*
D15*
X150837500Y-63770000D03*
X150837500Y-63370000D03*
X150837500Y-62970000D03*
X150837500Y-62570000D03*
X150837500Y-62170000D03*
X150837500Y-61770000D03*
X150837500Y-61370000D03*
D14*
X150100000Y-60632500D03*
X149700000Y-60632500D03*
X149300000Y-60632500D03*
X148900000Y-60632500D03*
X148500000Y-60632500D03*
X148100000Y-60632500D03*
X147700000Y-60632500D03*
D15*
X146962500Y-61370000D03*
X146962500Y-61770000D03*
X146962500Y-62170000D03*
X146962500Y-62570000D03*
X146962500Y-62970000D03*
X146962500Y-63370000D03*
X146962500Y-63770000D03*
%TD*%
D11*
%TO.C,R5*%
X149300000Y-67060000D03*
X151125000Y-67060000D03*
%TD*%
D16*
%TO.C,D1*%
X140480000Y-57277000D03*
X138730000Y-57277000D03*
%TD*%
M02*
